# xmcd
#
# Track frame offsets:
#	150
#	10139
#	24464
#	43497
#	48670
#	58935
#	79185
#	94651
#	108542
#	122929
#	144436
#	162101
#	173107
#	190319
#	207439
#	222330
#	236155
#	247529
#	265865
#	281046
#	298641
#	314438
#
# Disc length: 4400
#
# Revision: 4
# Processed by: cddbd v1.5.1PL0 Copyright (c) Steve Scherf et al.
# Submitted via: EasyCDDAExtractor 7.0.4.1
# Normalized: r3:DSETVAR1
#
DISCID=4d112e16
DTITLE=Various Artist - A Gospel Bluegrass Homecoming
DYEAR=2003
DGENRE=Country
TTITLE0=Ricky Scaggs and Kentucky Thunder - I'm Ready To Go
TTITLE1=Ricky Scaggs and Kentucky Thunder - Are You Afraid To Die?
TTITLE2=Jeff and Sheri Easter - Lord, Send Your Angels
TTITLE3=Jeff and Sheri Easter - Rivers Of Babylon
TTITLE4=Doyle Lawson and Quicksilver - I Am Going To Heaven
TTITLE5=Issacs - Another Soldier Down
TTITLE6=Issacs - He Ain't Never Done Me Nothin' But Good
TTITLE7=Del McCoury and the Del McCoury Band - Recovering Pharisee
TTITLE8=Ricky Scaggs, Ronnie McCoury, Doyle Lawson, Marty Stuart - Rawhide
TTITLE9=Gaither Vocal Band - Knowing You'll Be There
TTITLE10=Mountain Heart - John
TTITLE11=Mountain Heart - Gospel Train
TTITLE12=Cynthia Clawson - Hear The Voice Of My Beloved
TTITLE13=Cynthia Clawson - Rock Of Ages
TTITLE14=Ralpoh Stanley and the Clinch Mountain Boys - Rank Strangers To Me
TTITLE15=Vestal Goodman, Jeff and Sheri Easter - Jesus, Hold My Hand
TTITLE16=Lewis Family - I Plan To Meet You There
TTITLE17=Marty Stuart and His Fabulous Superlatives - Lord, I'm Coming Home
TTITLE18=Connie Smith - Clinging To A Saving Hand
TTITLE19=Jerry and Tammy Sullivan, Marty Stuart - Workin' On A Building
TTITLE20=Jerry and Tammy Sullivan, Marty Stuart - Tomorrow
TTITLE21=Nitty Gritty Dirt Band and Friends - Take Me In Your Lifeboat
EXTD=
EXTT0=
EXTT1=
EXTT2=
EXTT3=
EXTT4=
EXTT5=
EXTT6=
EXTT7=
EXTT8=
EXTT9=
EXTT10=
EXTT11=
EXTT12=
EXTT13=
EXTT14=
EXTT15=
EXTT16=
EXTT17=
EXTT18=
EXTT19=
EXTT20=
EXTT21=
PLAYORDER=
